<svg width="128" height="128" viewBox="0 0 128 128" fill="none" xmlns="http://www.w3.org/2000/svg">
<rect width="128" height="128" fill="#6C71F8"/>
<circle cx="64" cy="64" r="61" fill="#6C71F8"/>
<path d="M101.036 32L28.0331 62.3032C27.3444 62.6476 27 63.3363 27 64.025C27 64.7137 27.3444 65.4024 28.0331 65.7468L48.0056 74.0113L94.1492 38.8871L101.036 32ZM101.036 32L53.171 75.0444L58.3363 89.8516C58.6806 90.5403 59.025 90.8847 59.7137 90.8847C60.4024 90.8847 61.0911 90.196 61.4355 89.5073L65.2234 83.6532L76.9314 95.3613C77.2758 95.7056 77.9645 96.05 78.3089 96.05C79.3419 96.05 80.0306 95.3613 80.375 94.3282L101.381 33.7218C101.381 33.2835 102.069 32.3444 101.036 32C98.0351 34.6504 99.1607 33.9617 98.472 34.306L101.036 32Z" fill="white"/>
</svg>
